# xmcd CD database file
#
# Track frame offsets:
#	150
#	12520
#	24498
#	40152
#	51091
#	60725
#	74021
#	80795
#	88666
#	106811
#	125323
#
# Disc length: 1970 seconds
#
# Revision: 0
# Processed by: cddbd v1.5.1PL0 Copyright (c) Steve Scherf et al.
# Submitted via: Feurio! 1.68 - http://www.feurio.com
#
DISCID=9207b00b
DTITLE=Rob Hoeke Rhythm and Blues Group - Save Our Souls
DYEAR=1900
DGENRE=Pop
TTITLE0=Babe Don't Go
TTITLE1=Dedicated To Marc Thelonius
TTITLE2=Drinking On My Bed
TTITLE3=Solitarely Yours
TTITLE4=What's Behind
TTITLE5=P-kick Boogie
TTITLE6=Let's Get Out Of Here
TTITLE7=Robby's Tune
TTITLE8=Don't Ask Me What I Say
TTITLE9=Lights Have Changed
TTITLE10=My Circular Jail
EXTD=
EXTT0=
EXTT1=
EXTT2=
EXTT3=
EXTT4=
EXTT5=
EXTT6=
EXTT7=
EXTT8=
EXTT9=
EXTT10=
PLAYORDER=
